<svg width="116" height="128" version="1.1" viewBox="0 0 116 128" xmlns="http://www.w3.org/2000/svg">
   <style>
      :root {
         --hue: 60;
      }

   </style>
   <g>
      <path d="m46.418 3.0982c-3.4623 1.9959-6.4126 4.8932-8.4784 8.4658l-35.896 62.079c-2.7245 4.7117-2.7249 10.55-1.951e-4 15.262 0.12601 0.21792 0.19027 0.32855 0.19263 0.33214l18.001 31.13c2.7242 4.7113 7.7876 7.6317 13.238 7.6317l49.052-1.8e-4c5.449-1e-5 10.513-2.9189 13.237-7.6304 0.12381-0.21403 0.03525-0.0616 0.01773-0.0319l18.175-31.432c2.7244-4.7116 2.7251-10.55 2e-4 -15.262l-12.264-21.208c-4.1317-7.1454-11.796-11.564-20.06-11.564-2.7751-8e-6 -5.4671 0.53746-7.996 1.4699l4.4227-7.6487c4.1318-7.1457 4.132-15.983 1.13e-4 -23.128-4.1319-7.1458-11.797-11.564-20.06-11.564-4.1313-1.4547e-5 -8.1193 1.1023-11.582 3.0982z" />
      <path style="fill:hsl(var(--hue), 100%, 50%)" d="m51.974 12.707c1.8024-1.039 3.8695-1.6118 6.0255-1.6118 4.3115-5e-6 8.2813 2.2884 10.437 6.0166 2.1557 3.7281 2.1557 8.3051-6.2e-5 12.033l-32.552 56.296-20.603 7.4e-4 -4.94e-4 2.46e-4c-1.4967-1.35e-4 -2.8659-0.78979-3.6143-2.0841-0.74849-1.2945-0.74823-2.8722 4.94e-4 -4.1668l-2.47e-4 -4.93e-4 35.896-62.079 2.47e-4 4.19e-4c1.0779-1.8642 2.6085-3.366 4.4109-4.405z" />
      <path style="fill:hsl(var(--hue), 100%, 25%)" d="m17.149 92.838 58.69-4.93e-4 10.302 17.816c0.74819 1.2943 0.74828 2.8729-1.43e-4 4.1672-0.7485 1.2945-2.1174 2.0837-3.6146 2.0837l-49.052 1.8e-4c-1.4969 1e-5 -2.8655-0.78907-3.6141-2.0837l-12.711-21.982z" />
      <path style="fill:hsl(var(--hue), 100%, 50%)" d="m75.606 53.577c1.8008-1.0381 3.8714-1.61 6.0271-1.61 4.3115-2.5e-5 8.281 2.2879 10.437 6.0161l12.264 21.208c0.74845 1.2943 0.74848 2.8725-1.4e-4 4.1672l-12.711 21.983-20.426-35.324c-2.1558-3.7282-2.1561-8.3049-2.47e-4 -12.033 1.0779-1.8641 2.6094-3.3682 4.4102-4.4063z" />
   </g>
</svg>